<svg 
 xmlns="http://www.w3.org/2000/svg"
 xmlns:xlink="http://www.w3.org/1999/xlink"
 width="183px" height="193px">
<path fill-rule="evenodd"  fill="rgb(237, 182, 34)"
 d="M181.206,34.069 C179.961,40.637 177.415,46.744 173.635,52.284 C170.792,56.450 166.972,59.584 161.919,61.028 C150.883,64.235 140.401,56.332 140.503,45.173 C140.544,40.658 142.228,36.525 144.845,32.725 C146.722,30.001 148.323,27.086 149.936,24.197 C152.384,19.814 154.693,15.375 158.852,12.180 C167.402,5.609 178.176,9.855 180.962,18.601 C182.602,23.749 182.185,28.909 181.206,34.069 ZM162.750,100.960 C165.054,107.790 164.878,114.995 164.174,122.076 C163.705,126.793 163.405,131.526 162.939,136.243 C161.188,153.942 144.525,167.788 130.407,177.209 C124.745,180.987 118.680,184.028 112.394,186.688 C106.619,189.132 100.708,191.297 94.441,191.871 C75.090,193.644 53.095,185.188 37.371,174.557 C20.741,163.312 13.639,147.727 7.189,129.688 C5.356,124.560 2.792,119.596 1.625,114.266 C1.273,112.659 1.033,111.048 0.885,109.435 C0.166,101.588 1.696,93.830 4.595,86.519 C7.110,80.175 9.990,72.662 15.658,68.341 C20.318,64.790 26.566,63.493 32.052,61.626 C41.644,58.362 53.633,62.344 63.427,63.746 C67.096,64.272 70.813,64.799 74.499,64.399 C79.709,63.832 84.507,61.460 89.538,60.021 C98.006,57.604 107.055,57.871 115.787,59.109 C123.133,60.152 130.475,61.902 136.975,65.398 C149.179,71.960 158.511,88.394 162.750,100.960 ZM121.804,108.373 C119.488,104.999 115.543,98.811 111.129,97.888 C107.236,97.073 103.240,96.396 99.272,97.714 C95.345,99.019 91.742,100.932 89.374,104.302 C87.651,106.753 85.508,107.945 82.591,108.261 C77.276,108.839 72.191,107.518 67.357,105.854 C61.585,103.865 55.816,102.822 49.842,103.787 C47.312,104.197 44.512,105.174 42.659,106.792 C40.791,108.422 39.518,111.037 38.747,113.451 C37.418,117.605 38.339,121.616 40.871,125.278 C43.696,129.367 46.469,133.625 50.624,136.428 C54.912,139.321 59.238,142.322 64.217,144.116 C66.564,144.961 68.908,146.022 71.346,146.373 C76.156,147.065 81.031,147.330 86.079,147.791 C89.520,147.426 93.118,147.206 96.654,146.630 C101.312,145.871 105.246,143.342 109.293,141.163 C113.260,139.026 116.932,136.458 119.120,132.472 C120.813,129.387 122.192,126.131 123.606,122.908 C125.816,117.870 124.865,112.831 121.804,108.373 ZM120.565,45.703 C114.673,49.722 105.857,49.079 101.794,41.949 C100.660,39.959 99.730,37.858 98.707,35.809 C97.425,29.496 97.914,23.334 99.261,17.233 C99.918,14.256 100.871,11.310 102.004,8.471 C104.381,2.517 109.481,-0.521 115.959,0.272 C120.571,0.835 123.479,3.895 125.542,7.695 C128.109,12.423 128.873,17.595 128.759,22.858 C128.680,26.517 128.444,30.205 127.851,33.814 C127.056,38.644 124.846,42.783 120.565,45.703 ZM66.630,54.170 C61.772,53.679 58.500,51.029 56.018,47.336 C53.368,43.391 51.657,39.007 50.890,34.323 C50.286,30.628 49.683,26.930 49.202,23.218 C48.732,19.585 49.280,16.140 50.824,12.704 C53.053,7.741 60.920,6.911 64.719,9.648 C67.823,11.882 70.143,14.729 72.194,17.828 C73.341,19.560 74.510,21.307 75.394,23.171 C76.840,26.219 78.063,29.366 78.834,31.185 C80.456,37.548 81.046,42.477 78.808,47.409 C76.785,51.868 71.565,54.668 66.630,54.170 Z"/>
</svg>
